<svg version="1.1" id="Layer_1" xmlns="http://www.w3.org/2000/svg" xmlns:xlink="http://www.w3.org/1999/xlink" x="0px" y="0px"
	 width="100%" viewBox="0 0 112 112" enable-background="new 0 0 112 112" xml:space="preserve">
<path fill="#000000" opacity="1.000000" stroke="none" 
	d="
M113.000000,66.000000 
	C113.000000,81.592598 113.000000,97.185196 113.000000,113.000000 
	C97.979836,113.000000 82.958580,113.000000 67.651062,112.719940 
	C77.969856,102.116722 88.747154,91.954643 99.117905,80.095390 
	C95.395760,79.750000 93.046272,79.831329 90.866737,79.262047 
	C87.283691,78.326149 84.735985,79.155914 82.162460,81.950409 
	C76.227242,88.395256 69.992043,94.570190 63.738331,100.711845 
	C61.630753,102.781654 59.264961,104.736259 55.811611,103.760674 
	C52.177654,102.734055 50.070816,100.375565 49.761482,96.693695 
	C49.340641,91.684586 52.698853,88.499489 56.290531,86.192993 
	C59.319500,84.247864 60.562649,88.299301 62.657661,89.581146 
	C62.933857,89.750130 63.148273,90.031631 63.365917,90.282997 
	C66.148277,93.496490 68.300034,91.483261 70.473206,89.448074 
	C72.647179,87.412148 73.844162,85.589523 71.009216,82.875847 
	C64.631874,76.771317 58.592495,70.313889 52.220692,64.203293 
	C50.747166,62.790184 49.384682,59.296371 46.286274,62.207737 
	C41.003490,67.171631 40.927376,67.763634 44.713604,71.701340 
	C49.385803,76.560463 49.453129,77.435806 44.438175,81.976654 
	C40.470570,85.569176 38.894978,90.104652 38.494381,95.203377 
	C37.870838,103.139763 43.060402,108.012543 48.000000,113.000000 
	C32.404331,113.000000 16.808662,113.000000 1.000000,113.000000 
	C1.000000,96.646385 1.000000,80.291855 1.222133,63.731045 
	C3.840831,68.152489 7.139793,72.060036 10.851391,75.692184 
	C19.014563,83.680611 27.086113,91.762665 35.546619,100.155243 
	C35.681957,97.493599 35.263851,95.188820 35.999287,93.343872 
	C37.782146,88.871315 36.321678,85.833733 32.977940,82.861046 
	C29.251829,79.548409 25.657406,76.029015 22.415300,72.248337 
	C19.602407,68.968170 15.725381,66.743637 13.513505,62.914314 
	C10.846994,58.297890 11.497194,54.381824 15.460197,51.526127 
	C19.601419,48.542007 22.943865,49.665230 28.288424,55.121799 
	C32.461285,59.382114 27.647335,60.630856 26.042873,62.989525 
	C25.485804,63.808453 24.768755,64.530724 24.291903,65.389908 
	C22.429775,68.745049 25.470474,70.116013 27.100996,71.999352 
	C28.654690,73.793930 30.672056,74.143608 32.354458,72.434509 
	C39.202770,65.477509 45.953606,58.423500 52.677963,51.345963 
	C56.155529,47.685745 51.661247,46.127563 50.346092,43.980804 
	C48.814198,41.480263 46.681313,42.693352 44.842644,44.212650 
	C42.826962,45.878212 41.555641,48.430328 37.792828,49.734402 
	C36.837173,48.517624 35.794773,46.775436 34.368465,45.444748 
	C27.466085,39.005138 18.552006,37.706924 10.872136,41.475845 
	C5.829665,43.950451 3.957433,48.880833 1.000000,53.000000 
	C1.000000,35.740620 1.000000,18.481239 1.000000,1.000000 
	C17.686907,1.000000 34.374794,1.000000 51.336098,1.275741 
	C38.072567,11.041766 27.816061,23.890415 14.937115,35.974548 
	C22.604675,36.605766 28.900452,39.120960 33.653797,32.763634 
	C34.246281,31.971222 34.886463,31.202524 35.585072,30.503302 
	C40.884159,25.199568 46.069424,19.771456 51.564163,14.677677 
	C55.117813,11.383343 60.262268,11.906359 63.124504,15.330553 
	C66.525681,19.399506 65.644562,22.870499 61.083286,27.962374 
	C56.918427,32.611721 54.601780,29.005947 52.432617,26.369526 
	C48.555012,21.656641 46.340359,25.277828 43.600964,27.566647 
	C40.192253,30.414688 42.431797,32.575596 44.412453,34.601048 
	C49.300201,39.599335 54.289848,44.499104 59.285709,49.390289 
	C67.201630,57.140350 64.949547,56.404774 72.585037,49.516678 
	C72.794914,49.327354 72.799324,48.910275 72.925728,48.518169 
	C72.057938,46.299355 69.959457,45.043808 68.488823,43.273083 
	C66.999527,41.479877 65.747581,39.192074 67.265038,37.379631 
	C70.988022,32.932934 75.415352,29.052683 77.495544,22.581015 
	C75.885628,29.340324 80.136040,32.296608 83.747498,35.768414 
	C89.390114,41.192837 94.979080,46.697968 100.230614,52.495174 
	C103.492828,56.096367 102.876396,61.090004 99.508598,64.165367 
	C96.107368,67.271255 92.503914,66.591423 88.010460,62.927475 
	C83.831573,59.520027 84.533600,56.802105 88.110168,53.708069 
	C88.956902,52.975571 89.522667,51.842628 90.024567,50.800861 
	C91.784271,47.148350 88.392998,45.855427 86.665154,43.884628 
	C85.168976,42.178074 83.467842,42.417419 81.906258,43.998493 
	C75.595909,50.387585 69.243790,56.735905 62.980480,63.170712 
	C60.192287,66.035255 60.109169,68.642113 63.406109,71.577934 
	C66.720940,74.529678 69.195206,73.628204 71.329086,70.677559 
	C74.547249,66.227608 76.973221,66.846848 80.614426,70.596992 
	C89.176315,79.415054 100.844109,78.903038 109.184700,69.928024 
	C110.426964,68.591270 111.726799,67.308006 113.000000,66.000000 
z"/>
<path fill="#000000" opacity="1.000000" stroke="none" 
	d="
M113.000000,49.531342 
	C102.929153,39.709976 92.787064,29.487963 82.846001,19.074039 
	C80.793480,16.923885 79.115570,16.173605 76.338539,18.971094 
	C75.452049,9.977869 69.025146,6.080603 63.202965,1.266962 
	C79.592667,1.000000 96.185333,1.000000 113.000000,1.000000 
	C113.000000,17.020210 113.000000,33.041447 113.000000,49.531342 
z"/>
</svg>